<?xml version="1.0" encoding="UTF-8"?>
<!DOCTYPE svg PUBLIC "-//W3C//DTD SVG 1.1//EN" "http://www.w3.org/Graphics/SVG/1.1/DTD/svg11.dtd">
<svg xmlns="http://www.w3.org/2000/svg" version="1.1" width="125px" height="57px" style="shape-rendering:geometricPrecision; text-rendering:geometricPrecision; image-rendering:optimizeQuality; fill-rule:evenodd; clip-rule:evenodd" xmlns:xlink="http://www.w3.org/1999/xlink">
<g><path style="opacity:0.877" fill="#b0b8bf" d="M -0.5,33.5 C -0.5,30.8333 -0.5,28.1667 -0.5,25.5C 2.91814,23.3877 6.58481,21.7211 10.5,20.5C 8.79971,17.9735 7.13305,18.1401 5.5,21C 3.40239,21.6776 1.40239,21.5109 -0.5,20.5C -0.5,19.8333 -0.5,19.1667 -0.5,18.5C 3.34862,13.5681 8.34862,12.2348 14.5,14.5C 15.8064,15.9122 16.6397,17.5789 17,19.5C 17.2608,23.706 17.7608,27.8726 18.5,32C 17.1205,36.2945 14.7872,37.1278 11.5,34.5C 7.08406,37.4223 3.08406,37.089 -0.5,33.5 Z M 7.5,26.5 C 8.5,26.5 9.5,26.5 10.5,26.5C 10.756,28.9124 9.75605,30.5791 7.5,31.5C 6.33363,29.8327 6.33363,28.166 7.5,26.5 Z"/></g>
<g><path style="opacity:0.874" fill="#b1bbc1" d="M 20.5,13.5 C 24.0876,14.0291 27.5876,14.0291 31,13.5C 32.9836,13.7413 34.8169,14.4079 36.5,15.5C 40.3185,12.6092 43.8185,12.9425 47,16.5C 47.81,23.0816 47.6433,29.5816 46.5,36C 44.5594,36.7429 42.7261,36.5762 41,35.5C 39.8663,14.3994 38.533,14.3994 37,35.5C 35.2739,36.5762 33.4406,36.7429 31.5,36C 30.6929,30.917 30.1929,25.7503 30,20.5C 28.6054,19.1854 27.6054,19.5188 27,21.5C 26.5007,26.4889 26.3341,31.4889 26.5,36.5C 24.5,36.5 22.5,36.5 20.5,36.5C 20.5,28.8333 20.5,21.1667 20.5,13.5 Z"/></g>
<g><path style="opacity:0.878" fill="#b1b9bf" d="M 54.5,13.5 C 66.5844,12.0981 71.0844,17.4315 68,29.5C 69.9649,33.103 68.7982,35.4363 64.5,36.5C 63.5224,36.0233 62.6891,35.3567 62,34.5C 58.3333,37.1667 54.6667,37.1667 51,34.5C 48.441,26.2038 51.6077,21.8704 60.5,21.5C 60.5,20.5 60.5,19.5 60.5,18.5C 57.5893,20.4667 54.256,21.4667 50.5,21.5C 50.2593,17.9812 51.5926,15.3145 54.5,13.5 Z M 57.5,26.5 C 58.5,26.5 59.5,26.5 60.5,26.5C 60.8841,28.6648 60.2174,30.3315 58.5,31.5C 56.2957,30.218 55.9624,28.5514 57.5,26.5 Z"/></g>
<g><path style="opacity:0.868" fill="#b0b8bf" d="M 93.5,13.5 C 101.697,12.8595 106.03,16.6928 106.5,25C 105.515,34.647 100.515,37.9804 91.5,35C 87.2479,29.7573 86.4146,23.9239 89,17.5C 90.3968,15.9297 91.8968,14.5964 93.5,13.5 Z M 96.5,18.5 C 98.1625,20.2244 99.1625,22.3911 99.5,25C 97.1404,33.8191 95.4737,33.6524 94.5,24.5C 94.6759,22.2147 95.3426,20.2147 96.5,18.5 Z"/></g>
<g><path style="opacity:0.885" fill="#b1b9bf" d="M 124.5,16.5 C 124.5,23.1667 124.5,29.8333 124.5,36.5C 122.5,36.5 120.5,36.5 118.5,36.5C 118.666,31.1563 118.499,25.8229 118,20.5C 117,19.1667 116,19.1667 115,20.5C 114.667,25.5 114.333,30.5 114,35.5C 112,36.8333 110,36.8333 108,35.5C 107.333,28.5 107.333,21.5 108,14.5C 111.491,14.0973 114.991,13.7639 118.5,13.5C 121.102,13.4672 123.102,14.4672 124.5,16.5 Z"/></g>
<g><path style="opacity:0.895" fill="#b0b8be" d="M 71.5,13.5 C 76.43,13.1975 81.2633,13.5308 86,14.5C 86.6667,15.8333 86.6667,17.1667 86,18.5C 84.1667,21.5 82.3333,24.5 80.5,27.5C 85.3383,27.9912 87.3383,30.6578 86.5,35.5C 81.1667,34.1667 75.8333,34.1667 70.5,35.5C 70.4851,29.3569 72.8184,24.1902 77.5,20C 75.5273,19.5045 73.5273,19.3379 71.5,19.5C 71.5,17.5 71.5,15.5 71.5,13.5 Z"/></g>
<g><path style="opacity:0.794" fill="#b3bac3" d="M 75.5,35.5 C 77.9201,35.2924 80.2534,35.6258 82.5,36.5C 84.3414,41.8156 83.0081,46.149 78.5,49.5C 78.1667,48.8333 77.8333,48.1667 77.5,47.5C 78.762,44.978 79.4287,42.3113 79.5,39.5C 76.7508,39.2739 74.0841,39.6072 71.5,40.5C 70.1667,39.5 70.1667,38.5 71.5,37.5C 73.0255,37.0057 74.3588,36.339 75.5,35.5 Z"/></g>
<g><path style="opacity:0.848" fill="#b0b7bd" d="M 16.5,37.5 C 24.1526,40.8103 32.1526,43.3103 40.5,45C 52.7596,46.6308 64.593,45.1308 76,40.5C 77.0588,40.6301 77.8921,41.1301 78.5,42C 70.3342,48.8362 60.8342,52.3362 50,52.5C 38.3745,51.6261 27.8745,47.7927 18.5,41C 17.1772,40.1841 16.5106,39.0174 16.5,37.5 Z"/></g>
</svg>
